<svg width="106" height="24" viewBox="0 0 106 24" fill="none" xmlns="http://www.w3.org/2000/svg">
<g id="logo">
<g id="Layer 1">
<g id="Group">
<path id="Vector" d="M30 16.8732H35.6157V13.4728H39.9369V16.8732H48.0577V20.668H30V16.8732ZM42.7162 12.4145H31.0203V8.61969H42.7124V6.2374H31.0203V2.44263H47.0336V15.002H42.7124V12.4185L42.7162 12.4145Z" fill="white"/>
<path id="Vector_2" d="M49.2075 16.8732H67.269V20.668H49.2075V16.8732ZM66.4543 11.6418V14.998H50.2317V2.44263H66.2449V5.79876H54.5529V7.03418H66.2449V10.3903H54.5529V11.6499H66.4543V11.6418Z" fill="white"/>
<path id="Vector_3" d="M68.061 7.31992C68.061 6.49497 68.2057 5.75855 68.4989 5.10262C68.792 4.44668 69.207 3.88732 69.74 3.42455C70.273 2.96177 70.9241 2.60765 71.6817 2.3662C72.4394 2.12475 73.2846 2.00402 74.2173 2.00402C75.1501 2.00402 75.9953 2.12475 76.7529 2.3662C77.5106 2.60765 78.1578 2.96177 78.6946 3.42455C79.2315 3.88732 79.6464 4.44668 79.9358 5.10262C80.229 5.75855 80.3736 6.49497 80.3736 7.31992C80.3736 8.14487 80.229 8.86117 79.9358 9.5171C79.6426 10.173 79.2276 10.7284 78.6946 11.1831C78.1578 11.6378 77.5106 11.992 76.7529 12.2414C75.9953 12.4909 75.1501 12.6157 74.2173 12.6157C73.2846 12.6157 72.4394 12.4909 71.6817 12.2414C70.9241 11.992 70.2768 11.6378 69.74 11.1831C69.2032 10.7284 68.7882 10.173 68.4989 9.5171C68.2095 8.86117 68.061 8.12877 68.061 7.31992ZM84.1999 14.1851C84.1999 14.9497 84.1009 15.6861 83.9067 16.3903L87.7064 17.6056L86.1187 20.9618L82.1097 19.5936C81.4968 20.2254 80.7924 20.7445 79.9891 21.1509C79.1896 21.5533 78.3215 21.839 77.3888 22L75.6755 19.1992C76.5245 19.0503 77.2631 18.8169 77.8875 18.495L75.3405 17.6781C74.7275 18.4588 73.9432 19.1066 72.9914 19.6217C72.0396 20.1368 71.004 20.495 69.8923 20.7042L68.3694 17.5694C69.7058 17.336 70.7223 16.9054 71.419 16.2897C72.1157 15.67 72.4622 14.9738 72.4622 14.1932V13.4889H76.574V14.4829C76.574 14.5714 76.5664 14.66 76.555 14.7485L79.9168 15.8511C80.0272 15.3078 80.0843 14.7565 80.0843 14.1972V13.493H84.1961V14.1972L84.1999 14.1851ZM74.2211 9.04225C74.7922 9.04225 75.2719 8.88934 75.6603 8.57948C76.0486 8.26962 76.2466 7.85111 76.2466 7.31992C76.2466 6.76056 76.0524 6.32998 75.6603 6.02817C75.2681 5.72636 74.7884 5.57746 74.2211 5.57746C73.6539 5.57746 73.1703 5.73038 72.782 6.02817C72.3937 6.32596 72.1957 6.76056 72.1957 7.31992C72.1957 7.85111 72.3899 8.26962 72.782 8.57948C73.1741 8.88934 73.6539 9.04225 74.2211 9.04225ZM86.0616 2.00402V12.7082H81.7404V2H86.0616V2.00402Z" fill="white"/>
<path id="Vector_4" d="M99.1089 2.53119V5.4004C99.1089 5.91549 99.0708 6.40644 98.9947 6.86922C98.9185 7.33199 98.8043 7.79075 98.652 8.2495L106 11.9356L103.872 15.3119L96.6075 11.5614C94.8828 13.3722 92.3777 14.6962 89.092 15.5332L87.3179 11.9799C89.6555 11.4809 91.483 10.6801 92.8003 9.58551C94.1176 8.49095 94.7724 7.08652 94.7724 5.38028V2.53521H99.1165L99.1089 2.53119ZM87.6034 16.8773H94.4717V13.6982H98.7929V16.8773H105.661V20.672H87.5996V16.8773H87.6034Z" fill="white"/>
</g>
</g>
<g id="Layer 1_2">
<g id="Group_2">
<path id="Vector_5" d="M12 24C18.6274 24 24 18.6274 24 12C24 5.37258 18.6274 0 12 0C5.37258 0 0 5.37258 0 12C0 18.6274 5.37258 24 12 24Z" fill="#E5EA1B"/>
<path id="Vector_6" d="M2.4375 4.77328C3.96417 6.78395 4.87217 9.28928 4.87217 12.0093C4.87217 14.7293 3.96417 17.2346 2.4375 19.2453C2.9095 19.8679 3.44017 20.4413 4.02283 20.9599C6.48683 18.7653 8.04017 15.5693 8.04017 12.0106C8.04017 8.45195 6.48683 5.25595 4.02283 3.06128C3.44017 3.57995 2.9095 4.15328 2.4375 4.77595V4.77328Z" fill="#FCF6B8"/>
<path id="Vector_7" d="M21.5626 19.2613C20.036 17.2506 19.128 14.7453 19.128 12.0253C19.128 9.30531 20.036 6.79998 21.5626 4.78931C21.0906 4.16665 20.56 3.59331 19.9773 3.07465C17.5133 5.26931 15.96 8.46531 15.96 12.024C15.96 15.5826 17.5133 18.7786 19.9773 20.9733C20.56 20.4546 21.0906 19.8813 21.5626 19.2586V19.2613Z" fill="#FCF6B8"/>
<g id="Group_3">
<path id="Vector_8" d="M9.72646 14.744C10.982 14.744 11.9998 12.7478 11.9998 10.2853C11.9998 7.82287 10.982 5.82666 9.72646 5.82666C8.47093 5.82666 7.45312 7.82287 7.45312 10.2853C7.45312 12.7478 8.47093 14.744 9.72646 14.744Z" fill="white"/>
<path id="Vector_9" d="M14.2733 14.744C15.5289 14.744 16.5467 12.7478 16.5467 10.2853C16.5467 7.82287 15.5289 5.82666 14.2733 5.82666C13.0178 5.82666 12 7.82287 12 10.2853C12 12.7478 13.0178 14.744 14.2733 14.744Z" fill="white"/>
<path id="Vector_10" d="M14.3063 12.652C14.9727 12.652 15.5129 11.5924 15.5129 10.2853C15.5129 8.97823 14.9727 7.91864 14.3063 7.91864C13.6399 7.91864 13.0996 8.97823 13.0996 10.2853C13.0996 11.5924 13.6399 12.652 14.3063 12.652Z" fill="#12153F"/>
<path id="Vector_11" d="M9.75989 12.652C10.4263 12.652 10.9666 11.5924 10.9666 10.2853C10.9666 8.97823 10.4263 7.91864 9.75989 7.91864C9.09347 7.91864 8.55322 8.97823 8.55322 10.2853C8.55322 11.5924 9.09347 12.652 9.75989 12.652Z" fill="#12153F"/>
</g>
</g>
</g>
</g>
</svg>
